<?xml version="1.0" standalone="no"?>
<!DOCTYPE svg PUBLIC "-//W3C//DTD SVG 1.1//EN" "http://www.w3.org/Graphics/SVG/1.1/DTD/svg11.dtd">
<svg xmlns="http://www.w3.org/2000/svg">
<metadata>Copyright (C) 2016 by original authors @ fontello.com</metadata>
<defs>
<font id="fontello" horiz-adv-x="1000" >
<font-face font-family="fontello" font-weight="400" font-stretch="normal" units-per-em="1000" ascent="850" descent="-150" />
<missing-glyph horiz-adv-x="1000" />
<glyph glyph-name="akti_contracts-01" unicode="&#xe800;" d="M896-150h-792c-35 0-62 27-62 62v876c0 35 27 62 62 62h584v-208c0-36 27-63 62-63h208v-667c0-35-27-62-62-62z m-771 667h333c13 0 21 8 21 21 0 12-8 20-21 20h-333c-12 0-21-8-21-20 0-13 9-21 21-21z m0 104h333c13 0 21 8 21 21 0 12-8 21-21 21h-333c-12 0-21-9-21-21 0-13 9-21 21-21z m479 146h-479c-12 0-21-9-21-21s9-21 21-21h479c13 0 21 8 21 21s-8 21-21 21z m209-125c-36 0-63 27-63 62v84c0 14 4 27 13 37l170-171c-10-8-23-12-37-12h-83z" horiz-adv-x="1000" />

<glyph glyph-name="akti_crm-01" unicode="&#xe801;" d="M858 60c0 0-16 115-31 125-6 7-29 23-94 63 2 6-2 21 0 19 2 0 0 12 0 12 0-4-43 23-45 77-3 36 0 79 0 79s31 80 79 80h31c44 0 79-80 79-80v-79c0 0-14-60-48-77 0 0-2-10 0-8 2 0-10-61 48-69 56-8 83-52 94-62 10-11 31-80 31-80h-144z m-233 188c81-8 144-63 156-77 21-25 32-111 32-111s-157-45-313-45c-156 0-312 45-312 45s4 75 31 111c14 14 75 67 156 77 79 12 63 125 63 125 0 0-67 23-63 204 0 6 15 106 94 108 0 0 62 0 62 0 65 0 94-110 94-110s10-158-62-204c0 2-15-115 62-123z m-360 31c0 0-2-12 0-12 2 0-2-13 0-19-65-40-88-56-94-63-15-10-31-125-31-125h-140c0 0 21 69 31 80 11 10 38 54 94 62 56 8 46 71 48 69 2 0 0 8 0 8-33 19-48 79-48 79v80c0 0 35 79 77 79h31c48 0 77-79 77-79s3-42 0-80c0-54-45-81-45-79z" horiz-adv-x="1000" />

<glyph glyph-name="akti_delivery-01" unicode="&#xe802;" d="M938 65h-63c0-69-56-125-125-125-69 0-125 56-125 125h-62-188c0-69-56-125-125-125s-125 56-125 125h-62c-36 0-63 27-63 62v500c0 36 27 63 63 63h500c35 0 62-27 62-63v-62h188c35 0 187-217 187-250v-188c0-35-27-62-62-62z m-688 62c-35 0-62-27-62-62s27-63 62-63 63 27 63 63-30 62-63 62z m500-125c35 0 63 27 63 63s-28 62-63 62-62-27-62-62 29-63 62-63z m125 375c0 36-90 125-125 125h-62c-36 0-63-27-63-62v-63c0-35 27-62 63-62h125c-5 0 62 2 62 0v62z" horiz-adv-x="1000" />

<glyph glyph-name="akti_delivery-alt-01" unicode="&#xe803;" d="M938-25h-63c0-69-56-125-125-125-69 0-125 56-125 125h-62-188c0-69-56-125-125-125s-125 56-125 125h-62c-36 0-63 27-63 63v312l188-187 418 418c11-10 19-27 19-43v-63h188c35 0 187-215 187-250v-187c0-36-29-63-62-63z m-688 63c-35 0-62-28-62-63s27-63 62-63 63 28 63 63-28 63-63 63z m500-126c35 0 63 28 63 63s-28 63-63 63c-35 0-62-28-62-63s27-63 62-63z m125 376c0 35-90 125-125 125h-62c-36 0-63-28-63-63v-62c0-36 27-63 63-63h125c-5 0 62 2 62 0v63z m-875 187l104 110 77-79 340 344 104-106-446-456-179 187z" horiz-adv-x="1000" />

<glyph glyph-name="akti_graph-01" unicode="&#xe804;" d="M963-140h-896-29c-15 0-28 13-28 27v28 895c0 15 13 28 28 28h27c14 0 27-13 27-28v-868h868c15 0 28-13 28-27v-28c2-14-11-27-25-27z m-28 138h-108c-14 0-27 12-27 27v271c0 14 13 27 27 27h108c15 0 28-13 28-27v-271c0-17-13-27-28-27z m-218 0h-109c-14 0-27 12-27 27v650c0 15 13 27 27 27h109c14 0 27-12 27-27v-652c0-15-13-25-27-25z m-217 0h-108c-15 0-27 12-27 27v433c0 15 12 27 27 27h108c15 0 27-12 27-27v-435c0-15-12-25-27-25z m-217 0h-108c-15 0-27 12-27 27v271c0 14 12 27 27 27h108c15 0 27-13 27-27v-271c0-17-12-27-27-27z" horiz-adv-x="1000" />

<glyph glyph-name="akti_help-01" unicode="&#xe805;" d="M500-142c-271 0-490 221-490 494-2 271 219 490 490 490 271 0 492-219 492-490 0-271-223-494-492-494z m185 111c73 37 136 96 175 169l-131 104c-25-52-66-94-119-121l75-152z m-379-2l90 150c-56 25-104 71-129 127l-142-104c42-73 104-134 181-173z m9 764c-86-39-157-108-198-193l141-98c23 64 73 116 134 145l-77 146z m-5-379c0-104 84-187 188-187 104 0 187 83 187 187 0 104-83 188-187 188-102 0-188-84-188-188z m367 379l-73-146c63-29 113-81 136-147l131 102c-42 83-111 150-194 191z" horiz-adv-x="1000" />

<glyph glyph-name="akti_interventions-01" unicode="&#xe806;" d="M883 348c0-31-4-63-12-94 0 0 108-79 73-141l-17-32c-27-46-133-12-158-4-23-23-50-44-79-60l6 2c0 0 17-134-52-152l-23-7c-52-14-113 90-123 109-33 0-67 6-98 14l6-4c0 0-81-108-143-73l-28 13c-47 27-12 144-6 164-21 21-39 46-56 73-21 0-142 0-156 52l-7 23c-16 61 86 111 109 121 0 31 4 63 12 92-14 14-106 96-77 144l19 25c31 54 137 16 160 8 23 23 48 42 75 58 0 27 2 140 52 152l23 7c61 16 109-80 121-107 31 0 65-4 94-12 19 21 96 102 142 75l27-17c54-31 18-133 6-160 23-23 42-48 58-75 9 0 134 14 152-52l7-23c14-48-82-104-107-119z m-383 194c-106 0-192-86-192-192s86-192 192-192 192 86 192 192-86 192-192 192z" horiz-adv-x="1000" />

<glyph glyph-name="akti_interventionsheet-01" unicode="&#xe807;" d="M952-102c-50-48-133-48-183 0l-59 56c0 0-64 127-177 259l-50 54c0 0-106 112-110 110-113-48-192-27-283 58-82 78-98 190-57 278l159-150c16-15 41-15 58 0l67 64c16 15 16 40 0 56l-152 144c87 27 189 4 262-67 119-110 102-189 61-277-3-4 106-114 106-114l52-48 248-192 58-56c50-48 50-127 0-175z m-94 148c-16 14-41 14-58 0-17-15-17-40 0-56 17-15 42-15 58 0 17 16 17 41 0 56z" horiz-adv-x="1000" />

<glyph glyph-name="akti_invoice-01" unicode="&#xe808;" d="M896-150h-792c-35 0-62 27-62 62v876c0 35 27 62 62 62h584v-208c0-36 27-63 62-63h208v-667c0-35-27-62-62-62z m-706 244c18-77 68-119 150-119 48 0 93 19 118 44l-45 52c-15-19-36-29-67-29-38 0-61 21-71 54h88l16 46h-112c0 4 0 6 0 10v11c0 8 0 14 2 22h125l16 48h-129c17 36 44 50 82 50 25 0 47-6 60-12l25 67c-15 8-60 14-85 14-88 0-146-39-169-119h-29l-17-48h37c0-8-2-16-2-25v-10c0-2 0-6 0-8h-23l-14-48h44z m-65 423h333c13 0 21 8 21 21 0 12-8 20-21 20h-333c-12 0-21-8-21-20 0-13 9-21 21-21z m0 104h333c13 0 21 8 21 21 0 12-8 21-21 21h-333c-12 0-21-9-21-21 0-13 9-21 21-21z m479 146h-479c-12 0-21-9-21-21s9-21 21-21h479c13 0 21 8 21 21s-8 21-21 21z m186-507l50 63c-32 25-75 33-113 33v36h-35v-38c-63-8-121-48-121-114 0-52 29-82 81-98l38-13v-89c-30 2-57 10-75 33l-57-63c36-31 84-41 130-41v-36h35v38c69 6 127 46 127 119 0 48-29 81-77 95l-50 15v83c27-2 50-8 67-23z m-136-14c0 23 19 31 38 35v-73c-9 2-38 5-38 38z m119-163c0-25-23-35-44-39v79l11-4c16-6 33-15 33-36z m40 559c-36 0-63 27-63 62v84c0 14 4 27 13 37l170-171c-10-8-23-12-37-12h-83z" horiz-adv-x="1000" />

<glyph glyph-name="akti_logout-01" unicode="&#xe809;" d="M977 306l-244-262c-27 2-48 29-48 58 0 0 0 54 0 125-4 0-429 71-429 123 0 52 425 123 429 123 0 75 0 133 0 133 0 29 21 52 48 50l242-273c19-23 21-56 2-77z m-844 44c0-135 48-183 184-183v-61h-61c-135 0-246 48-246 184v123c0 135 111 183 246 183h61v-61c-136-2-184-50-184-185z" horiz-adv-x="1000" />

<glyph glyph-name="akti_orders-01" unicode="&#xe80a;" d="M544-85l-54 39v221h-2c-15 44-109 77-230 85l392 588 348-250-454-683z m125 575c-59 41-136 27-175-34-40-60-25-141 33-183 58-42 136-27 175 33 40 61 25 142-33 184z m-546-234l377 557 40-28-357-525c-20 0-41-2-60-4z m302-125c0-35-96-64-212-64-117 0-213 29-213 64s96 65 213 65c116 0 212-29 212-65z m-400-77c35-27 106-52 188-52 81 0 152 25 187 52 15-8 25-19 25-29 0-35-96-65-212-65-117-2-213 27-213 63 0 10 8 21 25 31z m0-108c35-27 106-52 188-52 81 0 152 25 187 52 15-9 25-19 25-29 0-36-96-65-212-65-117-2-213 27-213 63 0 10 8 20 25 31z" horiz-adv-x="1000" />

<glyph glyph-name="akti_proforma-01" unicode="&#xe80b;" d="M896-150h-792c-35 0-62 27-62 62v878c0 35 27 62 62 62h584v-208c0-36 27-63 62-63h208v-669c0-35-27-62-62-62z m-625 835c-46 0-83-37-83-83s37-83 83-83 83 37 83 83-37 83-83 83z m0-250c-46 0-83-37-83-83s37-83 83-83 83 37 83 83-37 83-83 83z m542-314c0 12-9 21-21 21h-584c-12 0-20-9-20-21v-83c0-13 8-21 20-21h584c12 0 21 8 21 21v83z m0 523c-36 0-63 27-63 62v84c0 14 4 27 13 37l170-171c-10-8-23-12-37-12h-83z" horiz-adv-x="1000" />

<glyph glyph-name="akti_quote-01" unicode="&#xe80c;" d="M825-150h-500l310 327-191 194-242-229-64 64v477c0 36 27 63 62 63h208v42c0 35 27 62 63 62h83c36 0 63-27 63-62v-42h208c35 0 63-27 63-63v-771c0-35-30-62-63-62z m-312 958c-23 0-42-18-42-41 0-23 19-42 42-42 22 0 41 19 41 42 0 23-19 41-41 41z m208-125c0 36-27 63-63 63h-41v-63c23 0 41-18 41-41 0-23-18-42-41-42h-63-83-63c-23 0-41 19-41 42 0 23 18 41 41 41v63h-41c-36 0-63-27-63-63v-83c0-35 27-62 63-62h291c36 0 63 27 63 62v83z m-277-416l89-90-235-235 2-2-90-90-2 2-2-2-89 90 2 2-119 118 90 90 118-119 236 236z" horiz-adv-x="1000" />

<glyph glyph-name="akti_settings-01" unicode="&#xe80d;" d="M931 227h-133l94-94c25-25 25-62 0-87l-88-88c-25-25-62-25-87 0l-94 94v-133c0-34-27-63-63-63h-122c-34 0-63 27-63 63v133l-94-94c-25-25-62-25-87 0l-88 88c-25 25-25 62 0 87l94 94h-131c-34 0-63 27-63 63v123c0 33 27 62 63 62h133l-94 94c-25 25-25 62 0 87l88 88c25 25 62 25 87 0l94-94v131c0 34 27 63 63 63h123c33 0 62-27 62-63v-133l94 94c25 25 62 25 87 0l88-88c25-25 25-62 0-87l-94-94h133c34 0 63-27 63-63v-122c-4-34-31-61-65-61z m-431 369c-135 0-246-111-246-246s111-246 246-246 246 111 246 246-111 246-246 246z m0-369c-69 0-123 54-123 123s54 123 123 123 123-54 123-123-54-123-123-123z" horiz-adv-x="1000" />

<glyph glyph-name="akti_timesheet-01" unicode="&#xe80e;" d="M800 550c69-73 113-173 113-281 0-227-184-411-411-411-227 0-410 184-410 411-2 212 160 387 366 408v83h-41c-23 0-42 19-42 42s19 42 42 42h164c23 0 42-19 42-42s-19-42-42-42h-41v-83c73-6 139-33 195-73l82 79c16 17 41 17 58 0 17-16 17-41 0-58l-75-75z m-17-242c-16 125-116 225-241 244v-214c25-15 41-40 41-71 0-46-37-82-81-82s-81 38-81 82c0 31 17 56 42 71v214c-130-19-230-119-246-244 21-2 37-18 37-39 0-21-16-40-37-40 16-127 116-227 241-246v38c0 23 19 42 42 42s42-19 42-42v-38c127 19 225 117 243 244-20 2-37 19-37 40-2 23 15 39 35 41z" horiz-adv-x="1000" />

<glyph glyph-name="akti_timetracking-01" unicode="&#xe80f;" d="M413 223c-46 0-84 31-94 75l-123 48c-21 8-29 31-23 50l6 19c9 20 31 29 50 23l115-46c16 16 41 27 66 27 13 0 25-2 36-6l119 164c12 17 37 21 54 8 16-12 21-37 8-54l-125-175c4-10 6-23 6-35 2-54-41-98-95-98z m418-246l32-48c4-27-3-27-19-39h-236c-20 2-41 16-39 39l79 236c19 12 46 18 58 0l40-61c60 69 96 159 96 256 0 217-175 392-392 392-217 0-392-175-392-392 0-216 175-391 392-391 10 0 21 0 31 2l-18-44c-11-19 4-40 25-50l56-25c-15-2-29-2-44-2-277 0-500 223-500 500 0 277 223 500 500 500s500-223 500-500c0-150-65-283-169-373z" horiz-adv-x="1000" />

<glyph glyph-name="akti_user_alt-01" unicode="&#xe810;" d="M969 269h-81c-11 0-21 8-21 21s8 20 21 20h81c10 0 21-8 21-20s-11-21-21-21z m0 204h-81c-11 0-21 8-21 21s8 21 21 21h81c10 0 21-9 21-21s-11-21-21-21z m-244-450c-33 0-60 27-60 60s27 61 60 61 60-27 60-61-27-60-60-60z m0 204c-33 0-60 27-60 61s27 60 60 60 60-27 60-60-27-61-60-61z m0 204c-33 0-60 27-60 61s27 60 60 60 60-27 60-60-27-61-60-61z m-656-408c-2 12-56 81-56 96 0 121 75 223 181 264-42 30-67 77-67 130 0 89 77 162 171 162 94 0 171-73 171-162 0-53-27-100-67-130 106-41 181-143 181-264 0-15-54-81-56-96h-458z m819 83h81c10 0 21-8 21-21s-9-20-21-20h-81c-11 0-21 8-21 20s8 21 21 21z" horiz-adv-x="1000" />

<glyph glyph-name="akti_xls-01" unicode="&#xe811;" d="M896-150h-792c-35 0-62 27-62 62v876c0 35 27 62 62 62h584v-208c0-36 27-63 62-63h208v-667c0-35-27-62-62-62z m-550 452l-44-75-44 75h-68l79-121-77-116h71l39 70 40-70h71l-78 116 80 121h-69z m267-181h-109v179h-64v-237h173v58z m204 44c-4 8-9 14-15 20-6 7-14 11-23 15-8 4-19 8-29 10-6 3-12 5-19 7-6 2-10 4-14 4-4 2-7 4-9 6-2 2-2 4-2 8 0 5 2 7 4 9 5 2 9 2 15 2 6 0 15-2 21-4 8-2 14-4 21-9 6-2 14-6 21-10l27 54c-7 2-11 6-19 8-6 3-15 7-21 9-8 2-15 4-23 6-8 2-17 2-25 2-12 0-23-2-33-4-11-4-21-8-29-15-9-6-15-14-19-25-4-10-6-20-6-35 0-8 2-17 4-23 2-6 6-12 10-19 4-6 11-10 19-14 8-4 17-9 27-13 6-2 15-4 21-6 6-2 12-4 17-6 4-2 8-4 12-7 2-2 4-4 4-8 0-2-2-6-4-8-4 2-8 2-17 2-8 0-18 2-27 4-8 2-16 6-25 8-8 5-16 9-25 13l-27-56c6-5 15-9 23-11s17-6 25-8c8-2 19-4 27-6 9-2 19-2 27-2 11 0 21 2 34 4 10 2 20 6 29 12 8 6 14 13 21 23 6 11 8 21 8 36 0 10-2 20-6 27z m-4 477c-36 0-63 27-63 62v84c0 14 4 27 13 37l170-171c-10-8-23-12-37-12h-83z" horiz-adv-x="1000" />

<glyph glyph-name="akti_home-01" unicode="&#xe812;" d="M931 288h-62v-309c0-69-54-123-123-123h-121l0 0v309c0 33-27 62-62 62h-123c-34 0-63-27-63-62v-309l0 0h-123c-69 0-123 54-123 123v309h-62c-77 0-67 77-48 95l448 446c16 17 46 17 64 0l152-152v42c0 33 28 62 63 62h62c34 0 63-27 63-62v-225l110-111c15-18 19-95-52-95z" horiz-adv-x="1000" />

<glyph glyph-name="akti_webshop-01" unicode="&#xe813;" d="M948 246c0-19-17-36-35-36l-667-70c-19 0-36 16-36 35l-70 404c0 4 0 9 2 13l-15 93h-92c-18 0-35 15-35 34 0 19 17 35 35 35h159c2 0 4 0 6 0l8 0c21 2 40-10 42-29l19-117 696-45c18 0 35-17 35-36l-52-281z m-598 262c-29 0-52-23-52-52 0-29 23-52 52-52 29 0 52 23 52 52 2 29-23 52-52 52z m0-139c-29 0-52-23-52-52 0-29 23-52 52-52 29 0 52 23 52 52 2 29-23 52-52 52z m158 139c-29 0-52-23-52-52 0-29 23-52 52-52 30 0 52 23 52 52 0 29-22 52-52 52z m0-139c-29 0-52-23-52-52 0-29 23-52 52-52 30 0 52 23 52 52 0 29-22 52-52 52z m159 139c-29 0-52-23-52-52 0-29 23-52 52-52 29 0 52 23 52 52 0 29-23 52-52 52z m0-139c-29 0-52-23-52-52 0-29 23-52 52-52 29 0 52 23 52 52 0 29-23 52-52 52z m158 139c-29 0-52-23-52-52 0-29 23-52 52-52 29 0 52 23 52 52 0 29-23 52-52 52z m0-139c-29 0-52-23-52-52 0-29 23-52 52-52 29 0 52 23 52 52 0 29-23 52-52 52z m-475-281c48 0 88-40 88-88 0-48-40-88-88-88s-87 40-87 88c0 48 39 88 87 88z m423 0c48 0 87-40 87-88 0-48-39-88-87-88-48 0-88 40-88 88-2 48 38 88 88 88z" horiz-adv-x="1000" />

<glyph glyph-name="akti_user-01" unicode="&#xe814;" d="M917 13c0-21-82-119-84-140h-666c-2 19-84 119-84 140 0 175 111 325 265 385-58 44-98 110-98 187 0 132 113 238 250 238 138 0 250-106 250-238 0-77-40-143-98-187 154-58 265-208 265-385z" horiz-adv-x="1000" />

<glyph glyph-name="akti_articles-01" unicode="&#xe815;" d="M933-150h-339v94h-188v-94h-339c-21 0-38 17-38 37 0 0 0 340 0 584l0 0v-38h942c0-239 0-546 0-546 0-20-17-37-38-37z m-527 471c0 21-16 37-37 37h-227c-21 0-38-16-38-37v-113c0-20 17-37 38-37h225c21 0 37 17 37 37v113z m-56-38h-187c-11 0-19 9-19 19 0 11 8 19 19 19h187c10 0 19-8 19-19 0-10-9-19-19-19z m-190-37h57c10 0 18-8 18-19s-8-19-18-19h-57c-10 0-18 9-18 19s8 19 18 19z m388 469c152 0 292 0 292 0 0 0 108-88 129-207h-375l-46 207z m-519-225l150 227 377 131-37-206-490-152z" horiz-adv-x="1000" />

<glyph glyph-name="akti_checklist-01" unicode="&#xe816;" d="M871-144h-742c-23 0-41 19-41 42v781c0 23 18 42 41 42h123v42c0 45 38 83 83 83h330c45 0 83-38 83-83v-42h123c23 0 42-19 42-42v-783c0-21-19-40-42-40z m-42 742c0 23-19 42-41 42h-575c-23 0-42-19-42-42v-619c0-23 19-42 42-42h577c23 0 41 19 41 42v619z m-200-502c-16-17-41-17-58 0l-58 58c-17 17-17 42 0 59 16 16 41 16 58 0l29-30 75 75c17 17 42 17 58 0 17-16 17-41 0-58l-104-104z m0 246c-16-17-41-17-58 0l-58 58c-17 17-17 42 0 58 16 17 41 17 58 0l29-29 75 75c17 17 42 17 58 0 17-16 17-41 0-58l-104-104z m-252-240h-83c-23 0-42 19-42 42 0 23 19 41 42 41h83c23 0 42-18 42-41-2-23-19-42-42-42z m0 165h-83c-23 0-42 18-42 41s19 42 42 42h83c23 0 42-19 42-42s-19-41-42-41z m0 166h-83c-23 0-42 19-42 42s19 42 42 42h83c23 0 42-19 42-42s-19-42-42-42z" horiz-adv-x="1000" />

<glyph glyph-name="akti_projects-01" unicode="&#xe817;" d="M952-144h-206c-23 0-42 19-42 42v904c0 23 19 42 42 42h206c23 0 42-19 42-42v-904c0-23-19-42-42-42z m-102 144c46 0 81 38 81 81 0 46-37 82-81 82-46 0-81-38-81-82-2-43 35-81 81-81z m102 781c0 11-8 21-21 21h-164c-11 0-21-8-21-21v-533c0-10 8-21 21-21h164c11 0 21 8 21 21v533z m-62-102h-82c-10 0-20 9-20 21 0 10 8 21 20 21h82c10 0 20-8 20-21 0-12-8-21-20-21z m-82-41h42c10 0 21-9 21-21 0-11-8-21-21-21h-42c-10 0-20 8-20 21 0 12 10 21 20 21z m0-82h42c10 0 21-8 21-21 0-10-8-20-21-20h-42c-10 0-20 8-20 20 0 11 10 21 20 21z m-206-700h-206c-23 0-42 19-42 42v904c0 23 19 42 42 42h206c23 0 42-19 42-42v-904c0-23-19-42-42-42z m-102 144c46 0 81 38 81 81 0 46-37 82-81 82-46 0-81-38-81-82 0-43 35-81 81-81z m102 781c0 11-8 21-21 21h-164c-11 0-21-8-21-21v-533c0-10 8-21 21-21h164c11 0 21 8 21 21v533z m-60-350h-84c-10 0-20 9-20 21 0 11 8 21 20 21h84c10 0 21-8 21-21 0-10-11-21-21-21z m0 84h-84c-10 0-20 8-20 20 0 11 8 21 20 21h84c10 0 21-8 21-21 0-12-11-20-21-20z m0 81h-84c-10 0-20 8-20 21 0 10 8 21 20 21h84c10 0 21-9 21-21 0-11-11-21-21-21z m0 83h-84c-10 0-20 9-20 21 0 10 8 21 20 21h84c10 0 21-8 21-21 0-12-11-21-21-21z m-84-287h42c10 0 21-9 21-21 0-11-8-21-21-21h-42c-10 0-20 8-20 21 0 10 10 21 20 21z m-204-536h-206c-23 0-42 19-42 42v904c0 23 19 42 42 42h206c23 0 42-19 42-42v-904c-2-23-19-42-42-42z m-104 144c46 0 81 38 81 81 0 46-37 82-81 82-46 0-81-38-81-82 0-43 37-81 81-81z m104 781c0 11-8 21-21 21h-164c-11 0-21-8-21-21v-533c0-10 8-21 21-21h164c11 0 21 8 21 21v533z m-62-102h-82c-10 0-20 9-20 21 0 10 8 21 20 21h82c10 0 21-8 21-21 0-12-11-21-21-21z m-82-41h42c11 0 21-9 21-21 0-11-8-21-21-21h-42c-10 0-20 8-20 21 0 12 8 21 20 21z" horiz-adv-x="1000" />
</font>
</defs>
</svg>
